<svg width="67" height="68" viewBox="0 0 67 68" fill="none" xmlns="http://www.w3.org/2000/svg">
<path d="M17.6559 67.7413C17.1827 67.5723 16.7752 67.2344 16.5221 66.7539C15.7552 65.349 -2.21567 32.0469 0.712163 16.5188C2.04628 9.49165 4.89805 4.61817 9.18957 2.04025C12.8668 -0.174682 17.4121 -0.49055 21.99 1.1448C22.386 1.28626 22.7832 1.43946 23.1684 1.61101C23.4539 1.69602 23.7309 1.78933 24.0062 1.88766C29.067 3.69551 34.4948 8.24126 34.6827 19.3916C38.9017 14.1357 45.3433 9.53246 55.0835 13.0119C60.5645 14.9698 64.24 18.2167 65.7308 22.3966C67.358 26.9418 66.4268 32.4448 62.9825 38.7634C55.4224 52.6254 20.6392 67.088 19.1654 67.6925C18.6633 67.9089 18.1292 67.9104 17.6559 67.7413Z" fill="#FED16E"/>
</svg>
