<svg width="22" height="25" viewBox="0 0 22 25" fill="none" xmlns="http://www.w3.org/2000/svg">
<path d="M11.1187 0.55957C5.26413 0.55957 0.491577 5.53098 0.491577 11.6295C0.491577 16.5405 3.60349 20.7279 7.85434 22.1569C7.71908 21.4726 7.58157 20.6667 7.46563 19.8415C4.49004 18.4125 2.42378 15.2524 2.42378 11.6295C2.42378 6.63797 6.32684 2.57228 11.1187 2.57228C15.9106 2.57228 19.8136 6.63797 19.8136 11.6295C19.8136 15.2524 17.7474 18.4125 14.7718 19.8415C14.6559 20.6667 14.5183 21.4726 14.3831 22.1569C18.6339 20.7279 21.7458 16.5405 21.7458 11.6295C21.7458 5.53098 16.9733 0.55957 11.1187 0.55957ZM11.1187 4.585C7.38955 4.585 4.35599 7.74496 4.35599 11.6295C4.35599 14.0045 5.49599 16.1161 7.2543 17.4043V16.964C7.2543 16.5212 7.33249 15.8351 7.69961 15.1911C6.83012 14.2853 6.28819 13.0183 6.28819 11.6295C6.28819 8.85195 8.45227 6.59771 11.1187 6.59771C13.7852 6.59771 15.9492 8.85195 15.9492 11.6295C15.9492 13.0183 15.4073 14.2853 14.5378 15.1911C14.9049 15.8351 14.9831 16.5212 14.9831 16.964V17.4043C16.7414 16.1161 17.8814 14.0045 17.8814 11.6295C17.8814 7.74496 14.8479 4.585 11.1187 4.585ZM11.1187 8.61043C10.4781 8.61043 9.86381 8.87549 9.41086 9.34732C8.95792 9.81914 8.70345 10.4591 8.70345 11.1263C8.70345 11.7936 8.95792 12.4335 9.41086 12.9053C9.86381 13.3771 10.4781 13.6422 11.1187 13.6422C11.7593 13.6422 12.3736 13.3771 12.8266 12.9053C13.2795 12.4335 13.534 11.7936 13.534 11.1263C13.534 10.4591 13.2795 9.81914 12.8266 9.34732C12.3736 8.87549 11.7593 8.61043 11.1187 8.61043ZM11.1187 14.6486C10.2763 14.6486 8.2204 14.7661 8.2204 16.964C8.2204 19.1619 8.82932 22.4453 9.17518 23.3913C9.52105 24.3373 10.4791 24.7121 11.1187 24.7121C11.7583 24.7121 12.7144 24.3412 13.0622 23.3952C13.41 22.4493 14.017 19.1658 14.017 16.9679C14.017 14.768 11.9612 14.6486 11.1187 14.6486Z" fill="black"/>
</svg>
