<svg width="162" height="155" viewBox="0 0 162 155" fill="none" xmlns="http://www.w3.org/2000/svg">
<path d="M124.146 70.8896C112.455 83.3381 95.6421 88.3327 84.8388 90.3047C80.4364 91.1083 76.7952 87.7614 77.2249 83.3051C78.2943 72.2143 81.9307 54.7619 93.668 42.2647C105.405 29.7675 122.595 25.0447 133.597 23.2825C138.018 22.5744 141.587 25.9987 141.06 30.4429C139.769 41.3485 135.838 58.4411 124.146 70.8896Z" stroke="white" stroke-width="4"/>
<path d="M117.124 26.7598L138.513 46.8531" stroke="white" stroke-width="4"/>
<circle cx="112.257" cy="53.3207" r="10.8169" transform="rotate(43.2038 112.257 53.3207)" fill="#605DF2"/>
<path d="M98.9055 67.8403L66.0903 102.78" stroke="white" stroke-width="4"/>
<path d="M112.703 80.2154C117.918 90.0374 117.807 107.296 96.7031 131.53C104.98 122.718 108.188 102.667 94.8729 88.8659" stroke="white" stroke-width="4"/>
<path d="M85.48 54.6488C75.0309 49.7588 57.4572 50.6167 34.5559 73.163C42.8323 64.3507 62.9889 60.2175 78.1785 73.1877" stroke="white" stroke-width="4"/>
<path d="M80.9744 109.689L65.6652 175.493" stroke="#FA85A1" stroke-width="4"/>
<path d="M59.7174 115.35L15.9087 179.165" stroke="#FF7C16" stroke-width="4"/>
<path d="M62.1943 86.0161L36.6993 93.0245" stroke="#FF7C16" stroke-width="4"/>
<path d="M51.4369 103.984L7.4807 126.743" stroke="#FA85A1" stroke-width="4"/>
</svg>
