<svg width="20" height="17" viewBox="0 0 20 17" fill="none" xmlns="http://www.w3.org/2000/svg">
<path d="M16.5907 15.1222L19.3632 1.90632C19.4556 1.35181 19.4556 0.982136 19.1784 0.704881C18.9011 0.427626 18.6239 0.427626 18.2542 0.612462L1.61888 6.89692C1.34162 7.08175 1.06436 7.17417 0.879528 7.35901C0.787109 7.63626 0.787109 7.72868 0.787109 7.91352C0.879528 8.00594 1.06436 8.19077 1.43404 8.28319L5.68529 9.57705L15.5741 3.2926C15.8513 3.10776 16.0361 3.10776 16.221 3.20018C16.3134 3.2926 16.3134 3.2926 16.1286 3.47743L8.18058 10.7785L7.81091 15.2146C8.08816 15.2146 8.36542 15.1222 8.73509 14.8449L10.7683 12.8117L15.0195 15.9539C15.8513 16.416 16.3134 16.1388 16.5907 15.1222Z" fill="#070718"/>
</svg>
