<svg width="24" height="14" viewBox="0 0 24 14" fill="none" xmlns="http://www.w3.org/2000/svg">
<path d="M22.5478 0.869493C22.7439 0.386441 22.5478 0 21.8616 0H19.3127C18.6264 0 18.3323 0.289831 18.2343 0.676272C18.2343 0.676272 16.9599 3.7678 15.0972 5.79662C14.509 6.37628 14.2149 6.5695 13.9208 6.5695C13.7247 6.5695 13.5287 6.37628 13.5287 5.89323V0.869493C13.5287 0.289831 13.3326 0 12.7444 0H8.82305C8.43091 0 8.13681 0.289831 8.13681 0.579662C8.13681 1.15932 9.01912 1.35254 9.11715 2.99492V6.66611C9.11715 7.43899 8.92109 7.63221 8.62698 7.63221C7.84271 7.63221 5.784 4.54068 4.50956 0.966103C4.31349 0.289831 4.01939 0 3.43119 0H0.882305C0.0980339 0 0 0.289831 0 0.676272C0 1.35254 0.882305 4.63729 4.01939 8.98476C6.0781 11.9797 9.01912 13.5254 11.7641 13.5254C13.3326 13.5254 13.5287 13.139 13.5287 12.5593V10.3373C13.5287 9.66103 13.7247 9.46781 14.2149 9.46781C14.6071 9.46781 15.1953 9.66103 16.7638 11.1102C18.4304 12.7526 18.7245 13.5254 19.7048 13.5254H22.2537C22.9399 13.5254 23.3321 13.139 23.136 12.4627C22.9399 11.7865 22.0576 10.7237 20.9793 9.56442C20.3911 8.88815 19.5087 8.11526 19.2146 7.72882C18.8225 7.24577 18.9205 7.05255 19.2146 6.66611C19.2146 6.66611 22.2537 2.41526 22.5478 0.869493Z" fill="black"/>
</svg>
