<svg width="23" height="28" viewBox="0 0 23 28" fill="none" xmlns="http://www.w3.org/2000/svg">
<circle cx="10.8547" cy="16.218" r="9.85473" stroke="black" stroke-width="2"/>
<path fill-rule="evenodd" clip-rule="evenodd" d="M15.1614 6.22534C15.1616 11.5994 15.1683 12.5107 15.2094 12.7827C15.2357 12.9565 15.2572 13.12 15.2572 13.1461C15.2572 13.1721 15.1832 13.0945 15.0928 12.9735C14.8593 12.6611 14.2985 12.1216 13.9445 11.8687C13.5788 11.6075 12.8578 11.2466 12.4438 11.1176C11.0464 10.6821 9.56717 10.8062 8.28758 11.4663C6.80273 12.2322 5.77261 13.6021 5.43625 15.2581C5.37218 15.5735 5.36246 15.714 5.36361 16.3076C5.36515 17.0846 5.40776 17.3572 5.63319 18.0323C6.16144 19.6144 7.44435 20.8936 9.03508 21.4242C11.6772 22.3057 14.5331 21.0858 15.7158 18.5706C15.9555 18.0608 16.0669 17.6675 16.158 17.0088C16.1849 16.8142 16.2006 15.1117 16.2138 10.9687C16.2302 5.86517 16.2378 5.20044 16.2802 5.20732C16.3066 5.2116 17.6518 5.62117 19.2695 6.11751L22.2108 7.01992L22.2189 4.59751C22.2235 3.26519 22.2163 2.16522 22.203 2.15314C22.186 2.13775 16.1347 0.273067 15.2172 0.000514411C15.1641 -0.015295 15.1612 0.295953 15.1614 6.22534Z" fill="black"/>
</svg>
