<svg width="22" height="16" viewBox="0 0 22 16" fill="none" xmlns="http://www.w3.org/2000/svg">
<path d="M10.8129 0C10.8129 0 4.20504 -9.17518e-06 2.40288 0.600709C1.42072 1.01771 0.911866 1.52657 0.600709 2.40288C-9.17518e-06 4.20504 0 7.80935 0 7.80935C0 7.80935 -9.17518e-06 11.4136 0.600709 13.2158C0.911866 14.248 1.92958 14.7568 2.40288 15.018C4.20504 15.6187 10.8129 15.6187 10.8129 15.6187C10.8129 15.6187 17.4209 15.6187 19.223 15.018C20.2484 14.7568 20.7748 13.9667 21.0251 13.2158C21.6259 11.4136 21.6258 7.80935 21.6258 7.80935C21.6258 7.80935 21.6259 4.20504 21.0251 2.40288C20.702 1.43342 20.2484 1.01771 19.223 0.600709C18.0216 -9.17518e-06 10.8129 0 10.8129 0ZM9.01077 4.07085L14.1421 7.63284L9.05356 11.1948L9.01077 4.07085Z" fill="black"/>
</svg>
